# Blender v2.63 (sub 0) OBJ File: 'didelis_namas.blend'
# www.blender.org
v 50.000000 0.000000 1.000000
v -50.000000 0.000000 1.000000
v 0.000000 0.000000 1.000000
v 50.000000 0.000000 -34.000000
v -50.000000 0.000000 -34.000000
v 0.000000 0.000000 -34.000000
v 0.000000 9.000000 -34.000000
v 50.000000 9.000000 -34.000000
v -50.000000 9.000000 1.000000
v 50.000000 3.150000 -34.000000
v -50.000000 3.150000 -34.000000
v 0.000000 3.150000 -34.000000
v 50.000000 3.150000 1.000000
v -50.000000 3.150000 1.000000
v 0.000000 3.150000 1.000000
v 50.000000 0.315000 -34.000000
v -50.000000 0.315000 -34.000000
v 0.000000 0.315000 -34.000000
v 50.000000 0.315000 1.000000
v -50.000000 0.315000 1.000000
v 0.000000 0.315000 1.000000
v 9.999999 0.000000 1.000000
v -9.999999 0.000000 1.000000
v 9.999999 9.000000 1.000000
v 9.999999 3.150000 1.000000
v -9.999999 3.150000 1.000000
v 9.999999 0.315000 1.000000
v -9.999999 0.315000 1.000000
v 9.999999 0.315000 -3.000000
v -9.999999 0.315000 -3.000000
v 9.999999 3.150000 -3.000000
v -9.999999 3.150000 -3.000000
v 0.000000 0.315000 -3.000000
v 0.000000 3.150000 -3.000000
v 50.000000 0.000000 -11.750000
v -50.000000 0.000000 -11.750000
v 50.000000 3.150000 -11.750000
v -50.000000 3.150000 -11.750000
v 50.000000 0.315000 -11.750000
v -50.000000 0.315000 -11.750000
v 50.000000 0.000000 -21.250000
v -50.000000 0.000000 -21.250000
v 50.000000 9.000000 -21.250000
v 50.000000 3.150000 -21.250000
v -50.000000 3.150000 -21.250000
v 50.000000 0.315000 -21.250000
v -50.000000 0.315000 -21.250000
v 46.000000 3.150000 -21.250000
v -46.000000 3.150000 -21.250000
v 46.000000 0.315000 -21.250000
v -46.000000 0.315000 -21.250000
v 46.000000 0.315000 -11.750000
v -46.000000 0.315000 -11.750000
v 46.000000 3.150000 -11.750000
v -46.000000 3.150000 -11.750000
v -50.000000 9.000000 -34.000000
v -50.000000 9.000000 -21.250000
v 50.000000 9.000000 -11.750000
v -50.000000 9.000000 -11.750000
v 50.000000 9.000000 1.000000
v 45.000000 16.000000 -16.500000
v -45.000000 16.000000 -16.500000
v 0.000000 16.000000 -16.500000
v -9.999999 9.000000 1.000000
v 0.000000 9.000000 1.000000
v 0.000000 16.000000 -5.000000
vt 0.012699 0.486967
vt 0.470144 0.486967
vt 0.470144 0.604060
vt 0.014109 0.604060
vt 0.927587 0.486967
vt 0.926177 0.604060
vt 0.013610 0.430617
vt 0.470144 0.429710
vt 0.470144 0.446590
vt 0.012175 0.445252
vt 0.925008 0.430617
vt 0.926443 0.445253
vt 0.013009 0.447400
vt 0.470144 0.447400
vt 0.927277 0.447400
vt 0.934506 0.795647
vt 0.590161 0.795647
vt 0.590161 0.682783
vt 0.934506 0.682783
vt 0.378031 0.682783
vt 0.378031 0.795647
vt 0.013121 0.795647
vt 0.013121 0.682782
vt 0.485173 0.795647
vt 0.485173 0.682783
vt 0.590161 0.624267
vt 0.934506 0.624267
vt 0.934506 0.640817
vt 0.590161 0.640817
vt 0.013121 0.640817
vt 0.013121 0.624267
vt 0.378031 0.624267
vt 0.378031 0.640817
vt 0.485173 0.640817
vt 0.485173 0.624267
vt 0.555896 0.670089
vt 0.555755 0.660007
vt 0.399885 0.668428
vt 0.400258 0.654488
vt 0.485173 0.649667
vt 0.485173 0.672537
vt 0.942691 0.165700
vt 0.767831 0.165700
vt 0.767831 0.116128
vt 0.942691 0.116128
vt 0.592972 0.165700
vt 0.592972 0.116128
vt 0.014365 0.870023
vt 0.229492 0.870023
vt 0.229492 0.984055
vt 0.014365 0.984055
vt 0.361527 0.984702
vt 0.361527 0.870274
vt 0.576987 0.870274
vt 0.576987 0.984702
vt 0.014365 0.816440
vt 0.229492 0.816679
vt 0.229492 0.831574
vt 0.014365 0.831574
vt 0.361527 0.831811
vt 0.361527 0.816157
vt 0.576987 0.816157
vt 0.576987 0.831811
vt 0.360688 0.870023
vt 0.360688 0.984055
vt 0.229412 0.984702
vt 0.229412 0.870274
vt 0.575269 0.870023
vt 0.575269 0.984055
vt 0.012829 0.984702
vt 0.012829 0.870274
vt 0.360688 0.816666
vt 0.360688 0.831574
vt 0.229412 0.831811
vt 0.229412 0.816157
vt 0.575269 0.817452
vt 0.575269 0.831574
vt 0.012829 0.831811
vt 0.012829 0.816157
vt 0.323586 0.855723
vt 0.326243 0.841402
vt 0.259233 0.859821
vt 0.259381 0.844090
vt 0.263810 0.840716
vt 0.326452 0.844425
vt 0.261483 0.854928
vt 0.325928 0.860000
vt 0.601429 0.072592
vt 0.688076 0.072592
vt 0.688076 0.098450
vt 0.601429 0.098450
vt 0.774722 0.072592
vt 0.774722 0.098450
vt 0.055352 0.404326
vt 0.030226 0.282194
vt 0.103266 0.219742
vt 0.105508 0.217034
vt 0.028873 0.284723
vt 0.056527 0.406227
vt 0.011504 0.191194
vt 0.007399 0.188234
vt 0.056013 0.083734
vt 0.078296 0.195053
vt 0.122816 0.027228
vt 0.122275 0.029277
vt 0.077755 0.197101
vt 0.055471 0.085783
vt 0.329688 0.050946
vt 0.465973 0.050946
vt 0.329688 0.176594
vt 0.193403 0.050946
vt 0.574023 0.204537
vt 0.590874 0.314578
vt 0.492361 0.403020
vt 0.491055 0.403222
vt 0.523498 0.195052
vt 0.523498 0.027228
vn 0.000000 -0.000000 -1.000000
vn -0.000000 -0.000000 1.000000
vn -1.000000 0.000000 0.000000
vn 1.000000 -0.000000 0.000000
vn 0.000000 1.000000 -0.000000
vn 0.000000 -1.000000 0.000000
vn 0.813733 0.581238 -0.000000
vn -0.813733 0.581238 0.000000
vn 0.000000 0.650791 0.759257
vn 0.573462 0.819232 0.000000
vn -0.573462 0.819232 0.000000
vn 0.000000 0.928477 -0.371391
vn 0.000000 0.928477 0.371391
s off
f 10/1/1 12/2/1 7/3/1
f 10/1/1 7/3/1 8/4/1
f 7/3/1 12/2/1 11/5/1
f 7/3/1 11/5/1 56/6/1
f 4/7/1 6/8/1 18/9/1
f 4/7/1 18/9/1 16/10/1
f 18/9/1 6/8/1 5/11/1
f 18/9/1 5/11/1 17/12/1
f 16/13/1 18/14/1 12/2/1
f 16/13/1 12/2/1 10/1/1
f 12/2/1 18/14/1 17/15/1
f 12/2/1 17/15/1 11/5/1
f 60/16/2 24/17/2 25/18/2
f 60/16/2 25/18/2 13/19/2
f 26/20/2 64/21/2 9/22/2
f 26/20/2 9/22/2 14/23/2
f 24/17/2 65/24/2 15/25/2
f 24/17/2 15/25/2 25/18/2
f 15/25/2 65/24/2 64/21/2
f 15/25/2 64/21/2 26/20/2
f 22/26/2 1/27/2 19/28/2
f 22/26/2 19/28/2 27/29/2
f 20/30/2 2/31/2 23/32/2
f 20/30/2 23/32/2 28/33/2
f 27/29/2 21/34/2 3/35/2
f 27/29/2 3/35/2 22/26/2
f 3/35/2 21/34/2 28/33/2
f 3/35/2 28/33/2 23/32/2
f 13/19/2 25/18/2 27/29/2
f 13/19/2 27/29/2 19/28/2
f 28/33/2 26/20/2 14/23/2
f 28/33/2 14/23/2 20/30/2
f 27/29/3 25/18/3 31/36/3
f 27/29/3 31/36/3 29/37/3
f 32/38/4 26/20/4 28/33/4
f 32/38/4 28/33/4 30/39/4
f 21/34/5 27/29/5 29/37/5
f 21/34/5 29/37/5 33/40/5
f 30/39/5 28/33/5 21/34/5
f 30/39/5 21/34/5 33/40/5
f 25/18/6 15/25/6 34/41/6
f 25/18/6 34/41/6 31/36/6
f 34/41/6 15/25/6 26/20/6
f 34/41/6 26/20/6 32/38/6
f 31/42/2 34/43/2 33/44/2
f 31/42/2 33/44/2 29/45/2
f 33/44/2 34/43/2 32/46/2
f 33/44/2 32/46/2 30/47/2
f 13/48/4 37/49/4 58/50/4
f 13/48/4 58/50/4 60/51/4
f 59/52/3 38/53/3 14/54/3
f 59/52/3 14/54/3 9/55/3
f 1/56/4 35/57/4 39/58/4
f 1/56/4 39/58/4 19/59/4
f 40/60/3 36/61/3 2/62/3
f 40/60/3 2/62/3 20/63/3
f 19/59/4 39/58/4 37/49/4
f 19/59/4 37/49/4 13/48/4
f 38/53/3 40/60/3 20/63/3
f 38/53/3 20/63/3 14/54/3
f 37/49/4 44/64/4 43/65/4
f 37/49/4 43/65/4 58/50/4
f 57/66/3 45/67/3 38/53/3
f 57/66/3 38/53/3 59/52/3
f 44/64/4 10/68/4 8/69/4
f 44/64/4 8/69/4 43/65/4
f 56/70/3 11/71/3 45/67/3
f 56/70/3 45/67/3 57/66/3
f 35/57/4 41/72/4 46/73/4
f 35/57/4 46/73/4 39/58/4
f 47/74/3 42/75/3 36/61/3
f 47/74/3 36/61/3 40/60/3
f 41/72/4 4/76/4 16/77/4
f 41/72/4 16/77/4 46/73/4
f 17/78/3 5/79/3 42/75/3
f 17/78/3 42/75/3 47/74/3
f 46/73/4 16/77/4 10/68/4
f 46/73/4 10/68/4 44/64/4
f 11/71/3 17/78/3 47/74/3
f 11/71/3 47/74/3 45/67/3
f 46/73/2 44/64/2 48/80/2
f 46/73/2 48/80/2 50/81/2
f 49/82/2 45/67/2 47/74/2
f 49/82/2 47/74/2 51/83/2
f 39/58/5 46/73/5 50/81/5
f 39/58/5 50/81/5 52/84/5
f 51/83/5 47/74/5 40/60/5
f 51/83/5 40/60/5 53/85/5
f 44/64/6 37/49/6 54/86/6
f 44/64/6 54/86/6 48/80/6
f 55/87/6 38/53/6 45/67/6
f 55/87/6 45/67/6 49/82/6
f 37/49/1 39/58/1 52/84/1
f 37/49/1 52/84/1 54/86/1
f 53/85/1 40/60/1 38/53/1
f 53/85/1 38/53/1 55/87/1
f 52/88/4 50/89/4 48/90/4
f 52/88/4 48/90/4 54/91/4
f 49/92/3 51/93/3 53/90/3
f 49/92/3 53/90/3 55/89/3
f 60/94/7 58/95/7 61/96/7
f 62/97/8 59/98/8 9/99/8
f 58/95/7 43/100/7 61/96/7
f 62/97/8 57/101/8 59/98/8
f 43/102/7 8/103/7 61/104/7
f 62/105/8 56/106/8 57/107/8
f 65/108/9 24/109/9 66/110/9
f 64/111/9 65/108/9 66/110/9
f 63/112/10 66/113/10 24/114/10
f 63/112/11 64/115/11 66/113/11
f 7/116/12 63/117/12 61/104/12
f 7/116/12 61/104/12 8/103/12
f 60/94/13 61/96/13 63/112/13
f 60/94/13 63/112/13 24/114/13
f 7/116/12 56/106/12 62/105/12
f 7/116/12 62/105/12 63/117/12
f 9/99/13 64/115/13 63/112/13
f 9/99/13 63/112/13 62/97/13
