# Blender v2.63 (sub 0) OBJ File: 'konteineris.blend'
# www.blender.org
v -1.000000 0.000000 3.003135
v -1.000000 0.000000 -3.003135
v 1.000000 0.000000 -3.003135
v 1.000000 0.000000 3.003135
v -1.000000 2.000000 3.003135
v -1.000000 2.000000 -3.003135
v 1.000000 2.000000 -3.003135
v 1.000000 2.000000 3.003135
vt 0.007680 0.624609
vt 0.750196 0.624609
vt 0.750196 0.874413
vt 0.007680 0.874413
vt 0.998005 0.869812
vt 0.757576 0.869812
vt 0.757576 0.627688
vt 0.998005 0.627688
vt 0.750196 0.874217
vt 0.007680 0.874217
vt 0.007680 0.624413
vt 0.750196 0.624413
vt 0.752041 0.624239
vt 0.994165 0.624239
vt 0.994165 0.874044
vt 0.752041 0.874044
vt 0.007680 0.634570
vt 0.750196 0.634570
vt 0.750196 0.874609
vt 0.007680 0.874609
vt 0.007680 0.636875
vt 0.750196 0.636875
vt 0.750196 0.874804
vt 0.007680 0.874804
vn -1.000000 -0.000000 0.000000
vn 0.000000 0.000000 -1.000000
vn 1.000000 -0.000000 0.000000
vn 0.000000 0.000000 1.000000
vn -0.000000 -1.000000 0.000000
vn -0.000000 1.000000 0.000000
s off
f 2/1/1 1/2/1 5/3/1
f 2/1/1 5/3/1 6/4/1
f 6/5/2 7/6/2 3/7/2
f 6/5/2 3/7/2 2/8/2
f 7/9/3 8/10/3 4/11/3
f 7/9/3 4/11/3 3/12/3
f 1/13/4 4/14/4 8/15/4
f 1/13/4 8/15/4 5/16/4
f 1/17/5 2/18/5 3/19/5
f 1/17/5 3/19/5 4/20/5
f 8/21/6 7/22/6 6/23/6
f 8/21/6 6/23/6 5/24/6
