# Blender v2.63 (sub 0) OBJ File: 'namas1.blend'
# www.blender.org
v 1.500000 0.000000 0.000000
v -1.500000 0.000000 0.000000
v 1.500000 0.000000 0.500000
v -1.500000 0.000000 0.500000
v 5.500000 0.000000 0.500000
v 5.500000 0.000000 -6.900000
v -5.500000 0.000000 0.500000
v -5.500000 0.000000 -6.900000
v 7.000000 0.000000 -0.200000
v 7.000000 0.000000 -6.200000
v -7.000000 0.000000 -0.200000
v -7.000000 0.000000 -6.200000
v -7.000000 7.500000 -6.200000
v -7.000000 7.500000 -0.200000
v 7.000000 7.500000 -6.200000
v 7.000000 7.500000 -0.200000
v -5.500000 7.500000 -6.900000
v -5.500000 7.500000 0.500000
v 5.500000 7.500000 -6.900000
v 5.500000 7.500000 0.500000
v -1.500000 7.500000 0.500000
v 1.500000 7.500000 0.500000
v -1.500000 7.500000 0.000000
v 1.500000 7.500000 0.000000
v 1.500000 7.870000 0.000000
v -1.500000 7.870000 0.000000
v 1.500000 7.600000 0.500000
v -1.500000 7.600000 0.500000
v 5.500000 7.600000 0.500000
v 5.500000 7.600000 -6.900000
v -5.500000 7.600000 0.500000
v -5.500000 7.600000 -6.900000
v 7.000000 7.600000 -0.200000
v 7.000000 7.600000 -6.200000
v -7.000000 7.600000 -0.200000
v -7.000000 7.600000 -6.200000
v -4.900000 9.600000 -3.200000
v 4.900000 9.600000 -3.200000
v -0.000000 9.600000 0.000000
v -0.000000 9.600000 -3.200000
v -0.000000 0.000000 -6.900000
v -0.000000 7.500000 -6.900000
v -0.000000 7.600000 -6.900000
v -7.000000 2.250000 -0.200000
v -7.000000 2.250000 -6.200000
v 7.000000 2.250000 -0.200000
v 7.000000 2.250000 -6.200000
v 5.500000 2.250000 -6.900001
v -5.500000 2.250000 -6.900001
v -5.500000 2.250000 0.500000
v 5.500000 2.250000 0.500000
v -1.500000 2.250000 0.500000
v 1.500000 2.250000 0.500000
v -1.500000 2.250000 0.000000
v 1.500000 2.250000 0.000000
v -0.000000 2.250000 -6.900001
v 0.900000 0.000000 0.000000
v 0.900000 7.500000 0.000000
v 0.900000 7.870000 0.000000
v 0.900000 2.250000 0.000000
v -0.900000 0.000000 0.000000
v -0.900000 7.500000 0.000000
v -0.900000 7.870000 0.000000
v -0.900000 2.250000 0.000000
v -0.900000 2.250000 -0.200000
v -0.900000 0.000000 -0.200000
v 0.900000 2.250000 -0.200000
v 0.900000 0.000000 -0.200000
vt 0.896448 0.761097
vt 0.882127 0.743241
vt 0.879560 0.718598
vt 0.930209 0.746394
vt 0.896058 0.761482
vt 0.931260 0.746020
vt 0.879671 0.718127
vt 0.882359 0.743040
vt 0.721295 0.763224
vt 0.721548 0.746199
vt 0.721691 0.764123
vt 0.721297 0.747235
vt 0.613697 0.742817
vt 0.616184 0.728158
vt 0.236018 0.713042
vt 0.353173 0.754457
vt 0.352797 0.735019
vt 0.251096 0.697616
vt 0.613668 0.742846
vt 0.615762 0.728512
vt 0.235020 0.713438
vt 0.251001 0.698284
vt 0.353585 0.735331
vt 0.352927 0.754525
vt 0.061072 0.495806
vt 0.036783 0.510566
vt 0.036247 0.510770
vt 0.060880 0.495402
vt 0.369257 0.503461
vt 0.370953 0.502896
vt 0.742348 0.502534
vt 0.742278 0.501930
vt 0.925920 0.508575
vt 0.989215 0.715532
vt 0.988207 0.716884
vt 0.927109 0.507696
vt 0.571304 0.719103
vt 0.570234 0.748378
vt 0.571966 0.505590
vt 0.433346 0.118138
vt 0.433488 0.213092
vt 0.685469 0.212474
vt 0.685426 0.118038
vt 0.435225 0.432447
vt 0.685521 0.432505
vt 0.435048 0.117284
vt 0.687472 0.117398
vt 0.685877 0.211877
vt 0.435143 0.212781
vt 0.687319 0.431708
vt 0.436380 0.431342
vt 0.754876 0.118039
vt 0.756940 0.212438
vt 0.755930 0.432509
vt 0.363388 0.118081
vt 0.363919 0.213592
vt 0.365050 0.432561
vt 0.756926 0.117476
vt 0.756857 0.211881
vt 0.756649 0.431790
vt 0.364622 0.117025
vt 0.365402 0.213637
vt 0.367501 0.431527
vt 0.191853 0.118431
vt 0.195649 0.213367
vt 0.197790 0.431942
vt 0.194573 0.117012
vt 0.194843 0.212013
vt 0.198752 0.430416
vt 0.169649 0.118924
vt 0.171136 0.213750
vt 0.169868 0.432667
vt 0.167483 0.118379
vt 0.167397 0.211322
vt 0.168416 0.431384
vt 0.987193 0.118036
vt 0.987192 0.212408
vt 0.986342 0.432542
vt 0.987532 0.117744
vt 0.987422 0.212084
vt 0.987153 0.432075
vt 0.177413 0.848086
vt 0.177413 0.863585
vt 0.152280 0.863584
vt 0.152280 0.848086
vt 0.114579 0.936051
vt 0.028671 0.118325
vt 0.031698 0.214224
vt 0.057978 0.213202
vt 0.056201 0.118563
vt 0.058806 0.430951
vt 0.033516 0.432400
vt 0.076880 0.863584
vt 0.076881 0.848085
vt 0.051747 0.863583
vt 0.051747 0.848084
vt 0.143498 0.119659
vt 0.145660 0.212927
vt 0.146894 0.433255
vt 0.129609 0.131431
vt 0.128203 0.201553
vt 0.067808 0.201398
vt 0.066142 0.129476
vt 0.067734 0.786775
vt 0.067734 0.692482
vt 0.143168 0.692482
vt 0.143168 0.786775
vn -1.000000 0.000000 0.000000
vn 1.000000 0.000000 0.000000
vn -0.000000 0.000000 1.000000
vn 0.422885 0.000000 0.906183
vn 0.422886 0.000000 -0.906183
vn -0.422885 0.000000 0.906183
vn -0.422886 0.000000 -0.906183
vn -0.689655 0.724138 0.000000
vn 0.689655 0.724138 0.000000
vn 0.205084 0.874535 0.439465
vn 0.205084 0.874535 -0.439465
vn -0.205084 0.874535 -0.439465
vn -0.205084 0.874535 0.439465
vn 0.755545 0.655097 0.000000
vn -0.755545 0.655097 0.000000
vn -0.000000 0.000000 -1.000000
vn 0.000000 0.879707 -0.475517
vn -0.000029 0.879688 0.475551
vn 0.000029 0.879688 0.475551
vn 0.000000 0.879905 0.475149
vn -0.422886 -0.000000 0.906183
vn 0.422886 -0.000000 0.906183
vn -0.000000 -1.000000 0.000000
vn -0.000000 1.000000 0.000000
s off
f 22/1/1 27/2/1 25/3/1
f 22/1/1 25/3/1 24/4/1
f 21/5/2 23/6/2 26/7/2
f 21/5/2 26/7/2 28/8/2
f 20/9/3 29/10/3 27/2/3
f 20/9/3 27/2/3 22/1/3
f 18/11/3 21/5/3 28/8/3
f 18/11/3 28/8/3 31/12/3
f 16/13/4 33/14/4 29/10/4
f 16/13/4 29/10/4 20/9/4
f 15/15/5 19/16/5 30/17/5
f 15/15/5 30/17/5 34/18/5
f 14/19/6 18/11/6 31/12/6
f 14/19/6 31/12/6 35/20/6
f 13/21/7 36/22/7 32/23/7
f 13/21/7 32/23/7 17/24/7
f 15/15/2 34/18/2 33/25/2
f 15/15/2 33/25/2 16/26/2
f 13/21/1 14/27/1 35/28/1
f 13/21/1 35/28/1 36/22/1
f 36/22/8 35/28/8 37/29/8
f 34/18/9 38/30/9 33/25/9
f 29/10/10 33/14/10 38/31/10
f 30/17/11 38/30/11 34/18/11
f 32/23/12 36/22/12 37/29/12
f 31/12/13 37/32/13 35/20/13
f 25/3/14 40/33/14 39/34/14
f 26/7/15 39/35/15 40/36/15
f 17/24/16 32/23/16 43/37/16
f 17/24/16 43/37/16 42/38/16
f 42/38/16 43/37/16 30/17/16
f 42/38/16 30/17/16 19/16/16
f 32/23/17 37/29/17 40/39/17
f 32/23/17 40/39/17 43/37/17
f 30/17/17 43/37/17 40/39/17
f 30/17/17 40/39/17 38/30/17
f 25/3/18 29/10/18 38/31/18
f 25/3/18 38/31/18 40/33/18
f 26/7/19 40/36/19 37/32/19
f 26/7/19 37/32/19 31/12/19
f 26/7/20 31/12/20 28/8/20
f 25/3/20 27/2/20 29/10/20
f 11/40/1 44/41/1 45/42/1
f 11/40/1 45/42/1 12/43/1
f 44/41/1 14/44/1 13/45/1
f 44/41/1 13/45/1 45/42/1
f 9/46/2 10/47/2 47/48/2
f 9/46/2 47/48/2 46/49/2
f 46/49/2 47/48/2 15/50/2
f 46/49/2 15/50/2 16/51/2
f 8/52/7 12/43/7 45/42/7
f 8/52/7 45/42/7 49/53/7
f 49/53/7 45/42/7 13/45/7
f 49/53/7 13/45/7 17/54/7
f 7/55/21 50/56/21 44/41/21
f 7/55/21 44/41/21 11/40/21
f 50/56/21 18/57/21 14/44/21
f 50/56/21 14/44/21 44/41/21
f 6/58/5 48/59/5 47/48/5
f 6/58/5 47/48/5 10/47/5
f 48/59/5 19/60/5 15/50/5
f 48/59/5 15/50/5 47/48/5
f 5/61/22 9/46/22 46/49/22
f 5/61/22 46/49/22 51/62/22
f 51/62/22 46/49/22 16/51/22
f 51/62/22 16/51/22 20/63/22
f 4/64/3 52/65/3 50/56/3
f 4/64/3 50/56/3 7/55/3
f 52/65/3 21/66/3 18/57/3
f 52/65/3 18/57/3 50/56/3
f 3/67/3 5/61/3 51/62/3
f 3/67/3 51/62/3 53/68/3
f 53/68/3 51/62/3 20/63/3
f 53/68/3 20/63/3 22/69/3
f 2/70/2 54/71/2 52/65/2
f 2/70/2 52/65/2 4/64/2
f 54/71/2 23/72/2 21/66/2
f 54/71/2 21/66/2 52/65/2
f 1/73/1 3/67/1 53/68/1
f 1/73/1 53/68/1 55/74/1
f 55/74/1 53/68/1 22/69/1
f 55/74/1 22/69/1 24/75/1
f 41/76/16 8/52/16 49/53/16
f 41/76/16 49/53/16 56/77/16
f 56/77/16 49/53/16 17/54/16
f 56/77/16 17/54/16 42/78/16
f 6/58/16 41/79/16 56/80/16
f 6/58/16 56/80/16 48/59/16
f 48/59/16 56/80/16 42/81/16
f 48/59/16 42/81/16 19/60/16
f 24/82/3 25/83/3 59/84/3
f 24/82/3 59/84/3 58/85/3
f 25/83/3 39/86/3 59/84/3
f 1/87/3 55/88/3 60/89/3
f 1/87/3 60/89/3 57/90/3
f 58/91/3 60/89/3 55/88/3
f 58/91/3 55/88/3 24/92/3
f 58/85/3 59/84/3 63/93/3
f 58/85/3 63/93/3 62/94/3
f 62/94/3 63/93/3 26/95/3
f 62/94/3 26/95/3 23/96/3
f 59/84/3 39/86/3 63/93/3
f 63/93/3 39/86/3 26/95/3
f 54/71/3 2/70/3 61/97/3
f 54/71/3 61/97/3 64/98/3
f 23/72/3 54/71/3 64/98/3
f 23/72/3 64/98/3 62/99/3
f 62/99/3 64/98/3 60/89/3
f 62/99/3 60/89/3 58/91/3
f 61/97/2 66/100/2 65/101/2
f 61/97/2 65/101/2 64/98/2
f 64/98/23 65/101/23 67/102/23
f 64/98/23 67/102/23 60/89/23
f 57/90/24 68/103/24 66/100/24
f 57/90/24 66/100/24 61/97/24
f 60/89/1 67/102/1 68/103/1
f 60/89/1 68/103/1 57/90/1
f 65/104/3 66/105/3 68/106/3
f 65/104/3 68/106/3 67/107/3
