# Blender v2.63 (sub 0) OBJ File: 'pastatas1.blend'
# www.blender.org
v 2.078902 0.000000 -4.157804
v 2.078902 0.000000 0.000000
v -2.078902 0.000000 -0.000000
v -2.078901 0.000000 -4.157805
v 2.078903 7.843469 -4.157804
v 2.078901 7.843469 0.000001
v -2.078903 7.843469 -0.000000
v -2.078902 7.843469 -4.157804
v -2.477829 8.530691 -4.556731
v -2.477829 8.530691 0.398926
v 2.477827 8.530691 0.398928
v 2.477830 8.530691 -4.556729
v 2.477830 11.538153 -4.556729
v 2.477827 11.538153 0.398928
v -2.477829 11.538153 0.398926
v -2.477829 11.538153 -4.556731
v -1.814772 11.829197 -3.893675
v -1.814773 11.829197 -0.264130
v 1.814772 11.829197 -0.264128
v 1.814773 11.829197 -3.893674
v 1.977328 12.302866 -4.056229
v 1.977326 12.302866 -0.101573
v -1.977328 12.302866 -0.101575
v -1.977327 12.302866 -4.056230
v -1.977327 13.541665 -4.056230
v -1.977328 13.541665 -0.101575
v 1.977326 13.541665 -0.101573
v 1.977328 13.541665 -4.056229
v 0.791414 13.921751 -2.870315
v 0.791413 13.921751 -1.287488
v -0.791414 13.921751 -1.287488
v -0.791414 13.921751 -2.870316
vt 0.349296 0.072809
vt 0.349296 0.636064
vt 0.050716 0.636064
vt 0.050716 0.072809
vt 0.352143 0.072809
vt 0.352144 0.636063
vt 0.053564 0.636063
vt 0.053564 0.072809
vt 0.419641 0.077362
vt 0.419641 0.562676
vt 0.676905 0.562676
vt 0.676905 0.077362
vt 0.352321 0.636063
vt 0.352320 0.072809
vt 0.053741 0.072809
vt 0.053741 0.636063
vt 0.349473 0.636063
vt 0.050893 0.636063
vt 0.022246 0.693126
vt 0.378121 0.693126
vt 0.025093 0.693126
vt 0.377944 0.693126
vt 0.377944 0.693127
vt 0.022069 0.693126
vt 0.515389 0.676527
vt 0.858050 0.676527
vt 0.858049 0.884480
vt 0.515389 0.884479
vt 0.518301 0.676527
vt 0.518302 0.884479
vt 0.858050 0.884479
vt 0.858220 0.676526
vt 0.858220 0.884479
vt 0.518301 0.884479
vt 0.858220 0.676527
vt 0.515560 0.676527
vt 0.515560 0.884479
vt 0.357526 0.731621
vt 0.044319 0.731621
vt 0.086226 0.777387
vt 0.315620 0.777387
vt 0.046825 0.731620
vt 0.317970 0.777386
vt 0.088576 0.777386
vt 0.357370 0.731620
vt 0.046826 0.731621
vt 0.088732 0.777386
vt 0.318126 0.777386
vt 0.044163 0.731621
vt 0.357370 0.731621
vt 0.315463 0.777387
vt 0.086069 0.777386
vt 0.325737 0.809038
vt 0.075795 0.809037
vt 0.078458 0.809037
vt 0.328400 0.809037
vt 0.328244 0.809037
vt 0.078302 0.809037
vt 0.075952 0.809037
vt 0.325893 0.809037
vt 0.075952 0.887331
vt 0.325893 0.887331
vt 0.328244 0.887332
vt 0.078302 0.887331
vt 0.078458 0.887331
vt 0.328400 0.887331
vt 0.325736 0.887332
vt 0.075795 0.887331
vt 0.250784 0.966039
vt 0.150747 0.966038
vt 0.153410 0.966039
vt 0.253448 0.966039
vt 0.253292 0.966039
vt 0.153254 0.966039
vt 0.150904 0.966038
vt 0.250941 0.966039
vt 0.448138 0.648330
vt 0.379123 0.648330
vt 0.379123 0.579315
vt 0.448138 0.579315
vn 1.000000 -0.000000 0.000000
vn -0.000000 -0.000000 1.000000
vn -1.000000 -0.000000 -0.000000
vn 0.000000 0.000000 -1.000000
vn -0.864847 -0.502036 -0.000000
vn -0.000000 -0.502036 0.864847
vn 0.000000 -0.502036 -0.864847
vn 0.864847 -0.502036 0.000000
vn 1.000000 0.000000 0.000001
vn -0.401928 0.915671 -0.000000
vn -0.000000 0.915671 0.401928
vn 0.000000 0.915671 -0.401928
vn 0.401928 0.915671 0.000000
vn 0.945852 -0.324600 0.000001
vn 0.000000 -0.324600 -0.945852
vn -0.000000 -0.324600 0.945852
vn -0.945852 -0.324600 -0.000000
vn 0.305208 0.952286 0.000000
vn 0.000000 0.952286 -0.305208
vn -0.000000 0.952286 0.305208
vn -0.305208 0.952286 -0.000000
vn 0.000000 1.000000 0.000000
s off
f 1/1/1 5/2/1 6/3/1
f 1/1/1 6/3/1 2/4/1
f 2/5/2 6/6/2 7/7/2
f 2/5/2 7/7/2 3/8/2
f 3/9/3 7/10/3 8/11/3
f 3/9/3 8/11/3 4/12/3
f 5/13/4 1/14/4 4/15/4
f 5/13/4 4/15/4 8/16/4
f 8/17/5 7/18/5 10/19/5
f 8/17/5 10/19/5 9/20/5
f 7/7/6 6/6/6 11/20/6
f 7/7/6 11/20/6 10/21/6
f 5/13/7 8/16/7 9/21/7
f 5/13/7 9/21/7 12/22/7
f 6/3/8 5/2/8 12/23/8
f 6/3/8 12/23/8 11/24/8
f 11/25/9 12/26/9 13/27/9
f 11/25/9 13/27/9 14/28/9
f 12/26/4 9/29/4 16/30/4
f 12/26/4 16/30/4 13/31/4
f 10/29/2 11/32/2 14/33/2
f 10/29/2 14/33/2 15/34/2
f 9/35/3 10/36/3 15/37/3
f 9/35/3 15/37/3 16/33/3
f 16/38/10 15/39/10 18/40/10
f 16/38/10 18/40/10 17/41/10
f 15/42/11 14/38/11 19/43/11
f 15/42/11 19/43/11 18/44/11
f 13/45/12 16/46/12 17/47/12
f 13/45/12 17/47/12 20/48/12
f 14/49/13 13/50/13 20/51/13
f 14/49/13 20/51/13 19/52/13
f 19/52/14 20/51/14 21/53/14
f 19/52/14 21/53/14 22/54/14
f 20/48/15 17/47/15 24/55/15
f 20/48/15 24/55/15 21/56/15
f 18/44/16 19/43/16 22/57/16
f 18/44/16 22/57/16 23/58/16
f 17/41/17 18/40/17 23/59/17
f 17/41/17 23/59/17 24/60/17
f 24/60/3 23/59/3 26/61/3
f 24/60/3 26/61/3 25/62/3
f 23/58/2 22/57/2 27/63/2
f 23/58/2 27/63/2 26/64/2
f 21/56/4 24/55/4 25/65/4
f 21/56/4 25/65/4 28/66/4
f 22/54/9 21/53/9 28/67/9
f 22/54/9 28/67/9 27/68/9
f 27/68/18 28/67/18 29/69/18
f 27/68/18 29/69/18 30/70/18
f 28/66/19 25/65/19 32/71/19
f 28/66/19 32/71/19 29/72/19
f 26/64/20 27/63/20 30/73/20
f 26/64/20 30/73/20 31/74/20
f 25/62/21 26/61/21 31/75/21
f 25/62/21 31/75/21 32/76/21
f 29/77/22 32/78/22 31/79/22
f 29/77/22 31/79/22 30/80/22
