# Blender v2.63 (sub 0) OBJ File: 'siena.blend'
# www.blender.org
v 0.000000 0.000000 -0.200000
v 0.000000 0.000000 0.200000
v -4.000000 0.000000 0.200000
v -3.999999 0.000000 -0.200000
v -3.999999 1.700000 -0.200000
v -4.000000 1.700000 0.200000
v 0.000000 1.700000 0.200000
v 0.000000 1.700000 -0.200000
v -3.999999 0.255000 -0.200000
v -4.000000 0.255000 0.200000
v 0.000000 0.255000 -0.200000
v 0.000000 0.255000 0.200000
vt 0.066442 0.926151
vt 0.496966 0.926151
vt 0.497099 0.719924
vt 0.066575 0.719924
vt 0.010197 0.929340
vt 0.066046 0.929340
vt 0.066046 0.718194
vt 0.010197 0.718194
vt 0.066046 0.041601
vt 0.010197 0.041601
vt 0.554367 0.929340
vt 0.989925 0.929340
vt 0.989925 0.718194
vt 0.554367 0.718194
vt 0.989925 0.041601
vt 0.554367 0.041601
vt 0.496640 0.929340
vt 0.496640 0.718194
vt 0.496640 0.041601
vn 0.000000 1.000000 -0.000000
vn -1.000000 0.000000 -0.000002
vn 0.000000 0.000000 -1.000000
vn 1.000000 0.000000 0.000000
vn -0.000000 0.000000 1.000000
s off
f 6/1/1 7/2/1 8/3/1
f 6/1/1 8/3/1 5/4/1
f 4/5/2 3/6/2 10/7/2
f 4/5/2 10/7/2 9/8/2
f 9/8/2 10/7/2 6/9/2
f 9/8/2 6/9/2 5/10/2
f 1/11/3 4/12/3 9/13/3
f 1/11/3 9/13/3 11/14/3
f 11/14/3 9/13/3 5/15/3
f 11/14/3 5/15/3 8/16/3
f 2/17/4 1/11/4 11/14/4
f 2/17/4 11/14/4 12/18/4
f 12/18/4 11/14/4 8/16/4
f 12/18/4 8/16/4 7/19/4
f 3/6/5 2/17/5 12/18/5
f 3/6/5 12/18/5 10/7/5
f 10/7/5 12/18/5 7/19/5
f 10/7/5 7/19/5 6/9/5
