# Blender v2.63 (sub 0) OBJ File: 'sviestuvas.blend'
# www.blender.org
v 0.000000 0.000000 -1.000000
v 0.707107 0.000000 -0.707107
v 1.000000 0.000000 0.000000
v 0.707107 0.000000 0.707107
v -0.000000 0.000000 1.000000
v -0.707107 0.000000 0.707107
v -1.000000 0.000000 -0.000000
v -0.707107 0.000000 -0.707107
v -0.707107 5.343552 -0.707107
v -1.000000 5.343552 -0.000000
v -0.707107 5.343552 0.707107
v -0.000000 5.343552 1.000000
v 0.707107 5.343552 0.707107
v 1.000000 5.343552 0.000000
v 0.707107 5.343552 -0.707107
v 0.000000 5.343552 -1.000000
v -0.000000 5.485030 -0.479781
v 0.339256 5.485030 -0.339256
v 0.479781 5.485030 0.000000
v 0.339256 5.485030 0.339256
v -0.000000 5.485030 0.479781
v -0.339257 5.485030 0.339256
v -0.479781 5.485030 -0.000000
v -0.339257 5.485030 -0.339256
v -0.339257 29.054838 -0.339256
v -0.479781 29.054838 -0.000000
v -0.339257 29.054838 0.339256
v -0.000000 29.054838 0.479781
v 0.339256 29.054838 0.339256
v 0.479781 29.054838 0.000000
v 0.339256 29.054838 -0.339256
v -0.000000 29.054838 -0.479781
v -0.000000 29.691488 -0.425274
v 0.300714 29.691488 -0.300714
v 0.425274 29.691488 0.000000
v 0.300714 29.691488 0.300714
v -0.000000 29.691488 0.425274
v -0.300714 29.691488 0.300714
v -0.425274 29.691488 -0.000000
v -0.300714 29.691488 -0.300714
v -0.300714 33.208019 -0.270362
v -0.425274 33.339676 0.000000
v -0.300714 33.471333 0.270362
v -0.000000 33.525867 0.382350
v 0.300714 33.471333 0.270362
v 0.425274 33.339676 0.000000
v 0.300714 33.208019 -0.270362
v -0.000000 33.153484 -0.382350
v -0.000000 35.884724 -1.696752
v 0.300714 35.994762 -1.638384
v 0.425274 36.260418 -1.497470
v 0.300714 36.526073 -1.356557
v -0.000000 36.636112 -1.298189
v -0.300714 36.526073 -1.356557
v -0.425274 36.260418 -1.497470
v -0.300714 35.994762 -1.638384
v -0.300714 36.813087 -3.635697
v -0.425274 37.112438 -3.607091
v -0.300714 37.411789 -3.578484
v -0.000000 37.535786 -3.566636
v 0.300714 37.411789 -3.578484
v 0.425274 37.112438 -3.607091
v 0.300714 36.813087 -3.635697
v -0.000000 36.689091 -3.647546
v -0.000000 36.047379 -5.386053
v 0.300714 36.164043 -5.429702
v 0.425274 36.445690 -5.535079
v 0.300714 36.727337 -5.640456
v -0.000000 36.844002 -5.684105
v -0.300714 36.727337 -5.640456
v -0.425274 36.445690 -5.535079
v -0.300714 36.164043 -5.429702
v 0.009229 33.245960 -9.010908
v 1.329266 33.178543 -8.468302
v 1.876042 33.015785 -7.158336
v 1.329266 32.853024 -5.848371
v 0.009229 32.785603 -5.305765
v -1.310808 32.853024 -5.848371
v -1.857584 33.015785 -7.158336
v -1.310808 33.178543 -8.468302
v -1.072444 32.757538 -8.280411
v -1.520485 32.624172 -7.206993
v -1.072444 32.490795 -6.133576
v 0.009229 32.435555 -5.688952
v 1.090901 32.490795 -6.133576
v 1.538943 32.624172 -7.206993
v 1.090901 32.757538 -8.280411
v 0.009229 32.812782 -8.725035
v -0.279885 33.884109 -7.400688
v -0.482304 33.841255 -7.055773
v -0.338340 33.798397 -6.710858
v 0.009229 33.780643 -6.567989
v 0.356798 33.798397 -6.710858
v 0.500761 33.841255 -7.055773
v 0.356798 33.884109 -7.400688
v 0.009229 33.901863 -7.543557
v 0.009229 31.370543 -8.722919
v 0.963672 31.321796 -8.330594
v 1.359014 31.204115 -7.383433
v 0.963672 31.086433 -6.436273
v 0.009229 31.037687 -6.043948
v -0.945215 31.086433 -6.436273
v -1.340557 31.204115 -7.383433
v -0.945215 31.321796 -8.330594
v -0.740188 30.799498 -8.188883
v -1.050602 30.707094 -7.445188
v -0.740188 30.614691 -6.701492
v 0.009229 30.576416 -6.393443
v 0.758645 30.614691 -6.701492
v 1.069059 30.707094 -7.445188
v 0.758645 30.799498 -8.188883
v 0.009229 30.837772 -8.496932
v 0.009229 30.352079 -7.489297
v 0.009229 33.640266 -7.795736
v -0.492487 33.614635 -7.589504
v -0.700309 33.552776 -7.091616
v -0.492487 33.490913 -6.593727
v 0.009229 33.465290 -6.387495
v 0.510945 33.490913 -6.593727
v 0.718760 33.552776 -7.091616
v 0.510945 33.614635 -7.589504
v -0.300714 35.364246 -6.379591
v -0.425274 35.536560 -6.626041
v -0.300714 35.708874 -6.872491
v -0.000000 35.780247 -6.974577
v 0.300714 35.708874 -6.872491
v 0.425274 35.536560 -6.626041
v 0.300714 35.364246 -6.379591
v -0.000000 35.292870 -6.277506
v -0.000000 34.515144 -6.478492
v 0.300714 34.548027 -6.598637
v 0.425274 34.627411 -6.888684
v 0.300714 34.706795 -7.178731
v -0.000000 34.739677 -7.298876
v -0.300714 34.706795 -7.178731
v -0.425274 34.627411 -6.888684
v -0.300714 34.548027 -6.598637
v -0.000000 34.340557 -0.622010
v 0.300714 34.423492 -0.538085
v 0.425274 34.623707 -0.335470
v 0.300714 34.823925 -0.132856
v -0.000000 34.906857 -0.048930
v -0.300714 34.823925 -0.132856
v -0.425274 34.623707 -0.335470
v -0.300714 34.423492 -0.538085
vt 0.105024 0.155193
vt 0.102208 0.000000
vt 0.075977 0.000732
vt 0.084974 0.156259
vt 0.049893 0.002384
vt 0.064536 0.158239
vt 0.023677 0.004739
vt 0.043386 0.162691
vt 0.000000 0.007380
vt 0.018436 0.172683
vt 0.180792 0.002582
vt 0.167321 0.161057
vt 0.190728 0.169606
vt 0.204434 0.004546
vt 0.154573 0.000938
vt 0.145709 0.156850
vt 0.128405 0.000000
vt 0.125046 0.155524
vt 0.105448 0.179261
vt 0.124176 0.176305
vt 0.142381 0.180043
vt 0.160361 0.180835
vt 0.177112 0.184707
vt 0.034488 0.189378
vt 0.049964 0.182517
vt 0.068308 0.181650
vt 0.086555 0.177101
vt 0.094090 0.315306
vt 0.108820 0.314322
vt 0.079290 0.315772
vt 0.064398 0.317407
vt 0.049232 0.318648
vt 0.153448 0.315189
vt 0.168764 0.315658
vt 0.138417 0.314301
vt 0.123594 0.314571
vt 0.109501 0.341457
vt 0.123388 0.341389
vt 0.137435 0.341815
vt 0.151881 0.342242
vt 0.166576 0.342916
vt 0.052650 0.345626
vt 0.067260 0.344266
vt 0.081639 0.343150
vt 0.095634 0.342056
vt 0.097271 0.452508
vt 0.112087 0.450300
vt 0.082859 0.457236
vt 0.068316 0.461742
vt 0.053305 0.463684
vt 0.156352 0.459685
vt 0.171441 0.460925
vt 0.141611 0.455862
vt 0.126991 0.451811
vt 0.099285 0.614931
vt 0.100904 0.730802
vt 0.118609 0.730909
vt 0.115893 0.613574
vt 0.083856 0.617993
vt 0.084322 0.729859
vt 0.068959 0.620657
vt 0.068650 0.729089
vt 0.054058 0.621640
vt 0.054006 0.729121
vt 0.163106 0.618469
vt 0.168441 0.726785
vt 0.183076 0.726141
vt 0.178038 0.618760
vt 0.148100 0.616500
vt 0.152817 0.728276
vt 0.132545 0.614157
vt 0.136292 0.729982
vt 0.120952 0.833988
vt 0.137077 0.832563
vt 0.152592 0.829665
vt 0.167795 0.827012
vt 0.182649 0.825804
vt 0.059024 0.828607
vt 0.073891 0.829133
vt 0.089173 0.831093
vt 0.104784 0.833288
vt 0.402852 0.468052
vt 0.422534 0.467835
vt 0.425044 0.426200
vt 0.407031 0.423756
vt 0.434956 0.383356
vt 0.415895 0.378646
vt 0.451003 0.333294
vt 0.429746 0.326316
vt 0.482204 0.268406
vt 0.449173 0.245905
vt 0.456495 0.700241
vt 0.491420 0.673727
vt 0.455290 0.604945
vt 0.433093 0.612956
vt 0.436839 0.552873
vt 0.417282 0.557984
vt 0.426008 0.509560
vt 0.407907 0.512364
vt 0.473230 0.498059
vt 0.468732 0.467090
vt 0.487709 0.530355
vt 0.515718 0.562958
vt 0.571452 0.601637
vt 0.510819 0.371127
vt 0.561998 0.331442
vt 0.485122 0.403899
vt 0.472094 0.436147
vt 0.486741 0.466744
vt 0.490257 0.440952
vt 0.502901 0.416184
vt 0.527782 0.392862
vt 0.578728 0.373062
vt 0.586012 0.557133
vt 0.532022 0.539646
vt 0.505298 0.516996
vt 0.491358 0.492475
vt 0.555381 0.465093
vt 0.324560 0.414665
vt 0.324560 0.469787
vt 0.048347 0.985904
vt 0.065316 0.994341
vt 0.068694 0.979752
vt 0.056063 0.975717
vt 0.324560 0.362744
vt 0.084027 0.998048
vt 0.086823 0.983212
vt 0.324560 0.316868
vt 0.103443 0.999743
vt 0.104964 0.983915
vt 0.324560 0.271282
vt 0.123745 1.000000
vt 0.123547 0.983178
vt 0.324560 0.624295
vt 0.324560 0.678539
vt 0.143882 0.999173
vt 0.142168 0.983525
vt 0.324560 0.574526
vt 0.162638 0.997342
vt 0.160337 0.982963
vt 0.324560 0.524291
vt 0.182079 0.992883
vt 0.177198 0.978858
vt 0.199732 0.984249
vt 0.191749 0.973685
vt 0.104082 0.899890
vt 0.122356 0.899395
vt 0.087929 0.900036
vt 0.073598 0.900129
vt 0.059920 0.900380
vt 0.171253 0.898123
vt 0.185066 0.897753
vt 0.156849 0.898639
vt 0.140641 0.899155
vt 0.123154 0.945000
vt 0.139648 0.944535
vt 0.155202 0.943651
vt 0.169631 0.942362
vt 0.183437 0.940896
vt 0.063579 0.942734
vt 0.076828 0.943589
vt 0.091067 0.944447
vt 0.106546 0.945048
vt 0.113553 0.513035
vt 0.129608 0.514755
vt 0.143945 0.519394
vt 0.157955 0.523448
vt 0.172704 0.524658
vt 0.055011 0.527399
vt 0.069685 0.525504
vt 0.083490 0.520802
vt 0.097596 0.515501
vn 0.000000 0.544481 -0.838740
vn 0.000000 0.000000 -1.000000
vn -0.707083 0.000000 -0.707083
vn -0.593097 0.544481 -0.593097
vn -1.000000 0.000000 0.000000
vn -0.838740 0.544481 0.000000
vn -0.707083 0.000000 0.707083
vn -0.593097 0.544481 0.593097
vn 0.000000 0.000000 1.000000
vn 0.000000 0.544481 0.838740
vn 0.707083 0.000000 0.707083
vn 0.593097 0.544481 0.593097
vn 1.000000 0.000000 0.000000
vn 0.838740 0.544481 0.000000
vn 0.707083 0.000000 -0.707083
vn 0.593097 0.544481 -0.593097
vn 0.000000 0.690268 -0.723502
vn 0.511582 0.690268 -0.511582
vn 0.723502 0.690268 0.000000
vn 0.511582 0.690268 0.511582
vn 0.000000 0.690268 0.723502
vn -0.511582 0.690268 0.511582
vn -0.723502 0.690268 0.000000
vn -0.511582 0.690268 -0.511582
vn -0.706473 0.042238 -0.706473
vn 0.000000 0.042238 -0.999084
vn -0.999084 0.042238 0.000000
vn -0.706473 0.042238 0.706473
vn 0.000000 0.042238 0.999084
vn 0.706473 0.042238 0.706473
vn 0.999084 0.042238 0.000000
vn 0.706473 0.042238 -0.706473
vn 0.000000 0.048219 -0.998810
vn 0.699179 0.046236 -0.713431
vn 0.998993 0.044191 -0.000153
vn 0.699606 0.045991 0.713004
vn 0.000000 0.047792 0.998840
vn -0.699606 0.045991 0.713004
vn -0.998993 0.044191 -0.000153
vn -0.699179 0.046236 -0.713431
vn -0.701559 -0.074343 -0.708701
vn 0.000000 -0.089969 -0.995941
vn -0.999542 -0.002075 0.029847
vn -0.674123 0.110385 0.730308
vn 0.000000 0.163152 0.986572
vn 0.674123 0.110385 0.730308
vn 0.999542 -0.002075 0.029847
vn 0.701559 -0.074343 -0.708701
vn -0.738853 -0.524552 -0.422956
vn -0.761528 -0.647969 -0.012268
vn 0.000000 -0.999908 -0.012879
vn 0.000000 -0.771783 -0.635853
vn -0.997375 0.048067 0.053713
vn -0.996368 0.084719 -0.003296
vn -0.671010 0.583178 0.457839
vn -0.674978 0.737510 0.021149
vn 0.000000 0.795526 0.605884
vn 0.000000 0.999359 0.035524
vn 0.671010 0.583178 0.457839
vn 0.674978 0.737510 0.021149
vn 0.997375 0.048067 0.053713
vn 0.996368 0.084719 -0.003296
vn 0.738853 -0.524552 -0.422956
vn 0.761528 -0.647969 -0.012268
vn 0.000000 -0.861476 0.507736
vn 0.721183 -0.599902 0.346355
vn 0.998962 0.036409 -0.026612
vn 0.678121 0.643025 -0.355846
vn 0.000000 0.878842 -0.477065
vn -0.678121 0.643025 -0.355846
vn -0.998962 0.036409 -0.026612
vn -0.721183 -0.599902 0.346355
vn 0.000000 0.299966 -0.953917
vn 0.000000 -0.318064 -0.948057
vn -0.637532 -0.350627 -0.685995
vn -0.695517 0.264443 -0.668020
vn -0.901608 -0.429243 -0.053316
vn -0.983642 0.178686 0.022187
vn -0.637532 -0.507859 0.579333
vn -0.695517 0.092929 0.712424
vn 0.000000 -0.540391 0.841365
vn 0.000000 0.057405 0.998321
vn 0.637532 -0.507859 0.579333
vn 0.695517 0.092929 0.712424
vn 0.901608 -0.429243 -0.053316
vn 0.983642 0.178686 0.022187
vn 0.637532 -0.350627 -0.685995
vn 0.695517 0.264443 -0.668020
vn 0.673299 -0.220099 -0.705832
vn 0.000000 -0.185705 -0.982574
vn 0.952178 -0.303140 -0.037660
vn 0.673299 -0.386151 0.630482
vn 0.000000 -0.420545 0.907254
vn -0.673299 -0.386151 0.630482
vn -0.952178 -0.303140 -0.037660
vn -0.673299 -0.220099 -0.705832
vn 0.000000 -0.643635 -0.765313
vn -0.480911 -0.668172 -0.567644
vn -0.680105 -0.727470 -0.090365
vn -0.480911 -0.786767 0.386853
vn 0.000000 -0.811335 0.584552
vn 0.480911 -0.786767 0.386853
vn 0.680105 -0.727470 -0.090365
vn 0.480911 -0.668172 -0.567644
vn 0.000000 -0.992340 -0.123295
vn -0.411481 0.859127 -0.304209
vn -0.002838 0.876278 -0.481765
vn -0.618305 0.483108 -0.619892
vn -0.012177 0.530656 -0.847468
vn -0.579638 0.809381 0.094424
vn -0.918668 0.394848 0.010132
vn -0.418348 0.748466 0.514542
vn -0.665761 0.266091 0.697073
vn 0.000000 0.727103 0.686514
vn 0.001404 0.224189 0.974517
vn 0.418348 0.748466 0.514542
vn 0.664724 0.274361 0.694876
vn 0.591632 0.800043 0.099399
vn 0.922758 0.383190 0.040559
vn 0.418348 0.851619 -0.315744
vn 0.642842 0.484848 -0.592975
vn -0.747765 -0.357097 0.559709
vn 0.000000 -0.531693 0.846919
vn -0.997406 0.039247 -0.059877
vn -0.675436 0.409986 -0.612903
vn 0.000000 0.557939 -0.829859
vn 0.675436 0.409986 -0.612903
vn 0.997406 0.039247 -0.059877
vn 0.747765 -0.357097 0.559709
vn -0.001526 -0.187628 0.982208
vn 0.705710 -0.118290 0.698508
vn 0.998718 0.050050 0.001282
vn 0.695914 0.220740 -0.683340
vn -0.010132 0.284585 -0.958586
vn -0.695242 0.201025 -0.690054
vn -0.999176 0.034242 -0.021699
vn -0.707327 -0.126591 0.695425
vn 0.000000 -0.382061 -0.924100
vn 0.709708 -0.282571 -0.645283
vn 0.998840 0.009308 0.046999
vn 0.668203 0.328990 0.667257
vn 0.000000 0.455214 0.890378
vn -0.668203 0.328990 0.667257
vn -0.998840 0.009308 0.046999
vn -0.709708 -0.282571 -0.645283
s 1
f 16/1/1 1/2/2 8/3/3
f 16/1/1 8/3/3 9/4/4
f 8/3/3 7/5/5 10/6/6
f 8/3/3 10/6/6 9/4/4
f 6/7/7 11/8/8 10/6/6
f 6/7/7 10/6/6 7/5/5
f 6/7/7 5/9/9 12/10/10
f 6/7/7 12/10/10 11/8/8
f 4/11/11 13/12/12 12/13/10
f 4/11/11 12/13/10 5/14/9
f 4/11/11 3/15/13 14/16/14
f 4/11/11 14/16/14 13/12/12
f 2/17/15 15/18/16 14/16/14
f 2/17/15 14/16/14 3/15/13
f 2/17/15 1/2/2 16/1/1
f 2/17/15 16/1/1 15/18/16
f 15/18/16 16/1/1 17/19/17
f 15/18/16 17/19/17 18/20/18
f 15/18/16 18/20/18 19/21/19
f 15/18/16 19/21/19 14/16/14
f 13/12/12 14/16/14 19/21/19
f 13/12/12 19/21/19 20/22/20
f 13/12/12 20/22/20 21/23/21
f 13/12/12 21/23/21 12/13/10
f 11/8/8 12/10/10 21/24/21
f 11/8/8 21/24/21 22/25/22
f 11/8/8 22/25/22 23/26/23
f 11/8/8 23/26/23 10/6/6
f 9/4/4 10/6/6 23/26/23
f 9/4/4 23/26/23 24/27/24
f 9/4/4 24/27/24 17/19/17
f 9/4/4 17/19/17 16/1/1
f 24/27/24 25/28/25 32/29/26
f 24/27/24 32/29/26 17/19/17
f 24/27/24 23/26/23 26/30/27
f 24/27/24 26/30/27 25/28/25
f 22/25/22 27/31/28 26/30/27
f 22/25/22 26/30/27 23/26/23
f 22/25/22 21/24/21 28/32/29
f 22/25/22 28/32/29 27/31/28
f 20/22/20 29/33/30 28/34/29
f 20/22/20 28/34/29 21/23/21
f 20/22/20 19/21/19 30/35/31
f 20/22/20 30/35/31 29/33/30
f 18/20/18 31/36/32 30/35/31
f 18/20/18 30/35/31 19/21/19
f 18/20/18 17/19/17 32/29/26
f 18/20/18 32/29/26 31/36/32
f 31/36/32 32/29/26 33/37/33
f 31/36/32 33/37/33 34/38/34
f 31/36/32 34/38/34 35/39/35
f 31/36/32 35/39/35 30/35/31
f 29/33/30 30/35/31 35/39/35
f 29/33/30 35/39/35 36/40/36
f 29/33/30 36/40/36 37/41/37
f 29/33/30 37/41/37 28/34/29
f 27/31/28 28/32/29 37/42/37
f 27/31/28 37/42/37 38/43/38
f 27/31/28 38/43/38 39/44/39
f 27/31/28 39/44/39 26/30/27
f 25/28/25 26/30/27 39/44/39
f 25/28/25 39/44/39 40/45/40
f 25/28/25 40/45/40 33/37/33
f 25/28/25 33/37/33 32/29/26
f 40/45/40 41/46/41 48/47/42
f 40/45/40 48/47/42 33/37/33
f 40/45/40 39/44/39 42/48/43
f 40/45/40 42/48/43 41/46/41
f 38/43/38 43/49/44 42/48/43
f 38/43/38 42/48/43 39/44/39
f 38/43/38 37/42/37 44/50/45
f 38/43/38 44/50/45 43/49/44
f 36/40/36 45/51/46 44/52/45
f 36/40/36 44/52/45 37/41/37
f 36/40/36 35/39/35 46/53/47
f 36/40/36 46/53/47 45/51/46
f 34/38/34 47/54/48 46/53/47
f 34/38/34 46/53/47 35/39/35
f 34/38/34 33/37/33 48/47/42
f 34/38/34 48/47/42 47/54/48
f 56/55/49 57/56/50 64/57/51
f 56/55/49 64/57/51 49/58/52
f 56/55/49 55/59/53 58/60/54
f 56/55/49 58/60/54 57/56/50
f 54/61/55 59/62/56 58/60/54
f 54/61/55 58/60/54 55/59/53
f 54/61/55 53/63/57 60/64/58
f 54/61/55 60/64/58 59/62/56
f 52/65/59 61/66/60 60/67/58
f 52/65/59 60/67/58 53/68/57
f 52/65/59 51/69/61 62/70/62
f 52/65/59 62/70/62 61/66/60
f 50/71/63 63/72/64 62/70/62
f 50/71/63 62/70/62 51/69/61
f 50/71/63 49/58/52 64/57/51
f 50/71/63 64/57/51 63/72/64
f 63/72/64 64/57/51 65/73/65
f 63/72/64 65/73/65 66/74/66
f 63/72/64 66/74/66 67/75/67
f 63/72/64 67/75/67 62/70/62
f 61/66/60 62/70/62 67/75/67
f 61/66/60 67/75/67 68/76/68
f 61/66/60 68/76/68 69/77/69
f 61/66/60 69/77/69 60/67/58
f 59/62/56 60/64/58 69/78/69
f 59/62/56 69/78/69 70/79/70
f 59/62/56 70/79/70 71/80/71
f 59/62/56 71/80/71 58/60/54
f 57/56/50 58/60/54 71/80/71
f 57/56/50 71/80/71 72/81/72
f 57/56/50 72/81/72 65/73/65
f 57/56/50 65/73/65 64/57/51
f 73/82/73 88/83/74 81/84/75
f 73/82/73 81/84/75 80/85/76
f 80/85/76 81/84/75 82/86/77
f 80/85/76 82/86/77 79/87/78
f 79/87/78 82/86/77 83/88/79
f 79/87/78 83/88/79 78/89/80
f 78/89/80 83/88/79 84/90/81
f 78/89/80 84/90/81 77/91/82
f 77/92/82 84/93/81 85/94/83
f 77/92/82 85/94/83 76/95/84
f 76/95/84 85/94/83 86/96/85
f 76/95/84 86/96/85 75/97/86
f 75/97/86 86/96/85 87/98/87
f 75/97/86 87/98/87 74/99/88
f 74/99/88 87/98/87 88/83/74
f 74/99/88 88/83/74 73/82/73
f 87/98/87 98/100/89 97/101/90
f 87/98/87 97/101/90 88/83/74
f 86/96/85 99/102/91 98/100/89
f 86/96/85 98/100/89 87/98/87
f 85/94/83 100/103/92 99/102/91
f 85/94/83 99/102/91 86/96/85
f 84/93/81 101/104/93 100/103/92
f 84/93/81 100/103/92 85/94/83
f 83/88/79 102/105/94 101/106/93
f 83/88/79 101/106/93 84/90/81
f 82/86/77 103/107/95 102/105/94
f 82/86/77 102/105/94 83/88/79
f 81/84/75 104/108/96 103/107/95
f 81/84/75 103/107/95 82/86/77
f 88/83/74 97/101/90 104/108/96
f 88/83/74 104/108/96 81/84/75
f 97/101/90 112/109/97 105/110/98
f 97/101/90 105/110/98 104/108/96
f 104/108/96 105/110/98 106/111/99
f 104/108/96 106/111/99 103/107/95
f 103/107/95 106/111/99 107/112/100
f 103/107/95 107/112/100 102/105/94
f 102/105/94 107/112/100 108/113/101
f 102/105/94 108/113/101 101/106/93
f 101/104/93 108/114/101 109/115/102
f 101/104/93 109/115/102 100/103/92
f 100/103/92 109/115/102 110/116/103
f 100/103/92 110/116/103 99/102/91
f 99/102/91 110/116/103 111/117/104
f 99/102/91 111/117/104 98/100/89
f 98/100/89 111/117/104 112/109/97
f 98/100/89 112/109/97 97/101/90
f 111/117/104 113/118/105 112/109/97
f 110/116/103 113/118/105 111/117/104
f 109/115/102 113/118/105 110/116/103
f 108/114/101 113/118/105 109/115/102
f 107/112/100 113/118/105 108/113/101
f 106/111/99 113/118/105 107/112/100
f 105/110/98 113/118/105 106/111/99
f 112/109/97 113/118/105 105/110/98
f 73/82/73 80/85/76 115/119/106
f 73/82/73 115/119/106 114/120/107
f 114/121/107 115/122/106 89/123/108
f 114/121/107 89/123/108 96/124/109
f 80/85/76 79/87/78 116/125/110
f 80/85/76 116/125/110 115/119/106
f 115/122/106 116/126/110 90/127/111
f 115/122/106 90/127/111 89/123/108
f 79/87/78 78/89/80 117/128/112
f 79/87/78 117/128/112 116/125/110
f 116/126/110 117/129/112 91/130/113
f 116/126/110 91/130/113 90/127/111
f 78/89/80 77/91/82 118/131/114
f 78/89/80 118/131/114 117/128/112
f 117/129/112 118/132/114 92/133/115
f 117/129/112 92/133/115 91/130/113
f 77/92/82 76/95/84 119/134/116
f 77/92/82 119/134/116 118/135/114
f 118/132/114 119/136/116 93/137/117
f 118/132/114 93/137/117 92/133/115
f 76/95/84 75/97/86 120/138/118
f 76/95/84 120/138/118 119/134/116
f 119/136/116 120/139/118 94/140/119
f 119/136/116 94/140/119 93/137/117
f 75/97/86 74/99/88 121/141/120
f 75/97/86 121/141/120 120/138/118
f 120/139/118 121/142/120 95/143/121
f 120/139/118 95/143/121 94/140/119
f 74/99/88 73/82/73 114/120/107
f 74/99/88 114/120/107 121/141/120
f 121/142/120 114/144/107 96/145/109
f 121/142/120 96/145/109 95/143/121
f 72/81/72 122/146/122 129/147/123
f 72/81/72 129/147/123 65/73/65
f 72/81/72 71/80/71 123/148/124
f 72/81/72 123/148/124 122/146/122
f 70/79/70 124/149/125 123/148/124
f 70/79/70 123/148/124 71/80/71
f 70/79/70 69/78/69 125/150/126
f 70/79/70 125/150/126 124/149/125
f 68/76/68 126/151/127 125/152/126
f 68/76/68 125/152/126 69/77/69
f 68/76/68 67/75/67 127/153/128
f 68/76/68 127/153/128 126/151/127
f 66/74/66 128/154/129 127/153/128
f 66/74/66 127/153/128 67/75/67
f 66/74/66 65/73/65 129/147/123
f 66/74/66 129/147/123 128/154/129
f 128/154/129 129/147/123 130/155/130
f 128/154/129 130/155/130 131/156/131
f 128/154/129 131/156/131 132/157/132
f 128/154/129 132/157/132 127/153/128
f 126/151/127 127/153/128 132/157/132
f 126/151/127 132/157/132 133/158/133
f 126/151/127 133/158/133 134/159/134
f 126/151/127 134/159/134 125/152/126
f 124/149/125 125/150/126 134/160/134
f 124/149/125 134/160/134 135/161/135
f 124/149/125 135/161/135 136/162/136
f 124/149/125 136/162/136 123/148/124
f 122/146/122 123/148/124 136/162/136
f 122/146/122 136/162/136 137/163/137
f 122/146/122 137/163/137 130/155/130
f 122/146/122 130/155/130 129/147/123
f 89/123/108 135/161/135 134/160/134
f 89/123/108 134/160/134 96/124/109
f 89/123/108 90/127/111 136/162/136
f 89/123/108 136/162/136 135/161/135
f 90/127/111 91/130/113 137/163/137
f 90/127/111 137/163/137 136/162/136
f 91/130/113 92/133/115 130/155/130
f 91/130/113 130/155/130 137/163/137
f 92/133/115 93/137/117 131/156/131
f 92/133/115 131/156/131 130/155/130
f 93/137/117 94/140/119 132/157/132
f 93/137/117 132/157/132 131/156/131
f 94/140/119 95/143/121 133/158/133
f 94/140/119 133/158/133 132/157/132
f 95/143/121 96/145/109 134/159/134
f 95/143/121 134/159/134 133/158/133
f 48/47/42 138/164/138 139/165/139
f 48/47/42 139/165/139 47/54/48
f 138/164/138 49/58/52 50/71/63
f 138/164/138 50/71/63 139/165/139
f 46/53/47 47/54/48 139/165/139
f 46/53/47 139/165/139 140/166/140
f 140/166/140 139/165/139 50/71/63
f 140/166/140 50/71/63 51/69/61
f 46/53/47 140/166/140 141/167/141
f 46/53/47 141/167/141 45/51/46
f 140/166/140 51/69/61 52/65/59
f 140/166/140 52/65/59 141/167/141
f 44/52/45 45/51/46 141/167/141
f 44/52/45 141/167/141 142/168/142
f 142/168/142 141/167/141 52/65/59
f 142/168/142 52/65/59 53/68/57
f 44/50/45 142/169/142 143/170/143
f 44/50/45 143/170/143 43/49/44
f 142/169/142 53/63/57 54/61/55
f 142/169/142 54/61/55 143/170/143
f 42/48/43 43/49/44 143/170/143
f 42/48/43 143/170/143 144/171/144
f 144/171/144 143/170/143 54/61/55
f 144/171/144 54/61/55 55/59/53
f 42/48/43 144/171/144 145/172/145
f 42/48/43 145/172/145 41/46/41
f 144/171/144 55/59/53 56/55/49
f 144/171/144 56/55/49 145/172/145
f 48/47/42 41/46/41 145/172/145
f 48/47/42 145/172/145 138/164/138
f 138/164/138 145/172/145 56/55/49
f 138/164/138 56/55/49 49/58/52
