# Blender v2.63 (sub 0) OBJ File: 'tvora.blend'
# www.blender.org
v 0.026850 2.010194 -0.083498
v 0.037971 2.010194 -0.056648
v 0.026850 2.010194 -0.029799
v -0.000000 2.010194 -0.018677
v -0.026850 2.010194 -0.029799
v -0.037971 2.010194 -0.056648
v -0.026850 2.010194 -0.083498
v -0.000000 2.010194 -0.094619
v -0.000000 2.108038 -0.056648
v -0.000000 2.066306 -0.105097
v 0.034258 2.066306 -0.090907
v 0.048449 2.066306 -0.056648
v 0.034258 2.066306 -0.022390
v -0.000000 2.066306 -0.008200
v -0.034258 2.066306 -0.022390
v -0.048449 2.066306 -0.056648
v -0.034258 2.066306 -0.090907
v -0.034258 2.066306 -0.090907
v -0.048449 2.066306 -0.056648
v -0.034258 2.066306 -0.022390
v -0.000000 2.066306 -0.008200
v 0.034258 2.066306 -0.022390
v 0.048449 2.066306 -0.056648
v 0.034258 2.066306 -0.090907
v -0.000000 2.066306 -0.105097
v -0.000000 2.037005 -0.082080
v 0.017983 2.037005 -0.074631
v 0.025432 2.037005 -0.056648
v 0.017983 2.037005 -0.038665
v -0.000000 2.037005 -0.031216
v -0.017983 2.037005 -0.038665
v -0.025432 2.037005 -0.056648
v -0.017983 2.037005 -0.074631
v -0.026850 0.000772 -0.083498
v -0.037971 0.000772 -0.056648
v -0.026850 0.000772 -0.029799
v -0.000000 0.000772 -0.018677
v 0.026850 0.000772 -0.029799
v 0.037971 0.000772 -0.056648
v 0.026850 0.000772 -0.083498
v -0.000000 0.000772 -0.094619
v 0.000000 0.007880 -3.052139
v 0.000000 0.007880 -0.071758
v 0.000000 2.007880 -0.071758
v -0.000000 2.007879 -3.052139
vt 0.892853 0.015259
vt 0.892854 0.981182
vt 0.000000 0.981182
vt 0.000000 0.015259
vt 0.959117 0.738772
vt 0.960154 0.680119
vt 0.966771 0.690038
vt 0.964510 0.751021
vt 0.958922 0.257764
vt 0.966525 0.260146
vt 0.953573 0.738213
vt 0.953721 0.677664
vt 0.951320 0.256573
vt 0.948027 0.737082
vt 0.947278 0.678101
vt 0.943713 0.256573
vt 0.942571 0.747710
vt 0.940607 0.685959
vt 0.936077 0.257673
vt 0.936736 0.763736
vt 0.933898 0.698382
vt 0.928406 0.259544
vt 0.930895 0.778447
vt 0.926415 0.715434
vt 0.920895 0.261767
vt 0.980765 0.723805
vt 0.975989 0.785173
vt 0.970246 0.768761
vt 0.973394 0.704509
vt 0.981816 0.267905
vt 0.974154 0.263636
vt 0.961660 0.823552
vt 0.966339 0.845286
vt 0.953130 0.922749
vt 0.973068 0.888132
vt 0.933223 0.883664
vt 0.940182 0.842149
vt 0.945000 0.821412
vt 0.949316 0.810803
vt 0.953369 0.807716
vt 0.957403 0.811863
vt 0.957581 0.807336
vt 0.961990 0.818804
vt 0.953419 0.803196
vt 0.949241 0.806098
vt 0.944779 0.816267
vt 0.939772 0.836041
vt 0.932532 0.874861
vt 0.966872 0.839932
vt 0.973901 0.880468
vn 1.000000 0.000000 0.000000
vn 0.700919 -0.131718 -0.700919
vn 0.691855 0.206549 -0.691855
vn 0.000000 0.206549 -0.978423
vn 0.000000 -0.131718 -0.991272
vn 0.707083 0.000000 -0.707083
vn 0.000000 0.000000 -1.000000
vn 0.991272 -0.131718 0.000000
vn 0.978423 0.206549 0.000000
vn 0.700919 -0.131718 0.700919
vn 0.691855 0.206549 0.691855
vn 0.707083 0.000000 0.707083
vn 0.000000 -0.131718 0.991272
vn 0.000000 0.206549 0.978423
vn 0.000000 0.000000 1.000000
vn -0.700919 -0.131718 0.700919
vn -0.691855 0.206549 0.691855
vn -0.707083 0.000000 0.707083
vn -0.991272 -0.131718 0.000000
vn -0.978423 0.206549 0.000000
vn -1.000000 0.000000 0.000000
vn -0.700919 -0.131718 -0.700919
vn -0.691855 0.206549 -0.691855
vn -0.707083 0.000000 -0.707083
vn 0.000000 0.757653 -0.652608
vn -0.461470 0.757653 -0.461470
vn 0.000000 1.000000 0.000000
vn -0.652608 0.757653 0.000000
vn -0.461470 0.757653 0.461470
vn 0.000000 0.757653 0.652608
vn 0.461470 0.757653 0.461470
vn 0.652608 0.757653 0.000000
vn 0.461470 0.757653 -0.461470
vn 0.556047 -0.617725 -0.556047
vn 0.000000 -0.617725 -0.786370
vn 0.786370 -0.617725 0.000000
vn 0.556047 -0.617725 0.556047
vn 0.000000 -0.617725 0.786370
vn -0.556047 -0.617725 0.556047
vn -0.786370 -0.617725 0.000000
vn -0.556047 -0.617725 -0.556047
s 1
f 42/1/1 45/2/1 44/3/1
f 42/1/1 44/3/1 43/4/1
f 27/5/2 1/6/3 8/7/4
f 27/5/2 8/7/4 26/8/5
f 1/6/3 40/9/6 41/10/7
f 1/6/3 41/10/7 8/7/4
f 1/6/3 27/5/2 28/11/8
f 1/6/3 28/11/8 2/12/9
f 40/9/6 1/6/3 2/12/9
f 40/9/6 2/12/9 39/13/1
f 2/12/9 28/11/8 29/14/10
f 2/12/9 29/14/10 3/15/11
f 39/13/1 2/12/9 3/15/11
f 39/13/1 3/15/11 38/16/12
f 3/15/11 29/14/10 30/17/13
f 3/15/11 30/17/13 4/18/14
f 38/16/12 3/15/11 4/18/14
f 38/16/12 4/18/14 37/19/15
f 4/18/14 30/17/13 31/20/16
f 4/18/14 31/20/16 5/21/17
f 37/19/15 4/18/14 5/21/17
f 37/19/15 5/21/17 36/22/18
f 5/21/17 31/20/16 32/23/19
f 5/21/17 32/23/19 6/24/20
f 36/22/18 5/21/17 6/24/20
f 36/22/18 6/24/20 35/25/21
f 6/26/20 32/27/19 33/28/22
f 6/26/20 33/28/22 7/29/23
f 35/30/21 6/26/20 7/29/23
f 35/30/21 7/29/23 34/31/24
f 7/29/23 33/28/22 26/8/5
f 7/29/23 26/8/5 8/7/4
f 8/7/4 41/10/7 34/31/24
f 8/7/4 34/31/24 7/29/23
f 10/32/25 17/33/26 9/34/27
f 17/33/26 16/35/28 9/34/27
f 16/36/28 15/37/29 9/34/27
f 15/37/29 14/38/30 9/34/27
f 14/38/30 13/39/31 9/34/27
f 13/39/31 12/40/32 9/34/27
f 12/40/32 11/41/33 9/34/27
f 11/41/33 10/32/25 9/34/27
f 24/42/34 25/43/35 10/32/25
f 24/42/34 10/32/25 11/41/33
f 23/44/36 24/42/34 11/41/33
f 23/44/36 11/41/33 12/40/32
f 22/45/37 23/44/36 12/40/32
f 22/45/37 12/40/32 13/39/31
f 21/46/38 22/45/37 13/39/31
f 21/46/38 13/39/31 14/38/30
f 20/47/39 21/46/38 14/38/30
f 20/47/39 14/38/30 15/37/29
f 19/48/40 20/47/39 15/37/29
f 19/48/40 15/37/29 16/36/28
f 18/49/41 19/50/40 16/35/28
f 18/49/41 16/35/28 17/33/26
f 25/43/35 18/49/41 17/33/26
f 25/43/35 17/33/26 10/32/25
f 26/8/5 33/28/22 18/49/41
f 26/8/5 18/49/41 25/43/35
f 33/28/22 32/27/19 19/50/40
f 33/28/22 19/50/40 18/49/41
f 32/23/19 31/20/16 20/47/39
f 32/23/19 20/47/39 19/48/40
f 31/20/16 30/17/13 21/46/38
f 31/20/16 21/46/38 20/47/39
f 30/17/13 29/14/10 22/45/37
f 30/17/13 22/45/37 21/46/38
f 29/14/10 28/11/8 23/44/36
f 29/14/10 23/44/36 22/45/37
f 28/11/8 27/5/2 24/42/34
f 28/11/8 24/42/34 23/44/36
f 27/5/2 26/8/5 25/43/35
f 27/5/2 25/43/35 24/42/34
